<svg width="224" height="82" viewBox="0 0 224 82" fill="none" xmlns="http://www.w3.org/2000/svg">
<path d="M150.495 57.9545C147.762 57.9545 145.006 57.9545 142.273 57.9545C142.068 57.9089 141.863 57.8861 141.681 57.8406C138.925 57.2257 136.807 55.7453 135.395 53.2857C135.304 53.1263 135.168 52.9669 135.054 52.8075C135.031 52.7847 134.986 52.7619 134.894 52.7164C134.894 52.8302 134.894 52.9213 134.894 53.0124C134.894 54.4928 134.894 55.9731 134.894 57.4534C134.894 57.6584 134.849 57.7039 134.644 57.7039C127.857 57.7039 121.093 57.7039 114.306 57.7039C114.238 57.7039 114.147 57.7039 114.056 57.7039C114.056 55.2671 114.056 52.8758 114.056 50.4845C114.033 50.4845 114.01 50.4617 113.988 50.4617C113.896 50.6894 113.805 50.8944 113.737 51.1222C113.304 52.8075 112.553 54.2878 111.3 55.5176C110.184 56.588 108.863 57.2712 107.383 57.7039C107.064 57.795 106.745 57.9089 106.427 58C103.739 58 101.029 58 98.3416 58C98.3188 57.9772 98.2733 57.9772 98.2505 57.9545C97.7267 57.8406 97.1801 57.7723 96.6791 57.5901C95.176 57.1118 93.8551 56.3375 92.8302 55.1304C92.4886 54.7205 92.1925 54.2878 91.8737 53.8778C91.7826 53.764 91.6687 53.6729 91.5776 53.5818C91.5549 53.6046 91.5321 53.6046 91.5093 53.6273C91.7826 54.9938 92.0559 56.3375 92.3292 57.7039C89.323 57.7039 86.3623 57.7039 83.3561 57.7039C83.0145 55.882 82.6501 54.06 82.3085 52.2381C79.7578 52.2381 77.2298 52.2381 74.7019 52.2381C74.3602 54.0828 73.9959 55.9048 73.6542 57.7495C73.5631 57.7495 73.4721 57.7495 73.4037 57.7495C72.1284 57.7495 70.853 57.7495 69.5776 57.7495C68.0518 57.7495 66.5259 57.7495 65 57.7495C65 57.7267 65 57.7039 65 57.6584C65.0228 57.6356 65.0228 57.5901 65.0455 57.5673C65.5694 55.0166 66.0932 52.4658 66.617 49.9151C67.4141 46.1118 68.1884 42.2857 68.9855 38.4824C69.7598 34.7474 70.5342 31.0352 71.3085 27.3002C71.4224 26.7536 71.5362 26.2298 71.6501 25.6832C76.3416 25.6832 81.0331 25.6832 85.7246 25.6832C87.1594 32.6294 88.5942 39.5983 90.0518 46.5445C90.0745 46.5445 90.0973 46.5445 90.1429 46.5445C90.1884 46.3395 90.234 46.1346 90.234 45.9296C90.2567 45.2236 90.2795 44.5176 90.2795 43.8116C90.3023 41.3975 90.3023 39.0062 90.3251 36.5921C90.3478 35.2712 90.3478 33.9275 90.6211 32.6294C91.2588 29.5549 92.9669 27.3458 95.882 26.1159C97.3623 25.4783 98.9338 25.2277 100.528 25.0911C100.87 25.0683 101.188 25.0455 101.53 25C102.099 25 102.669 25 103.238 25C103.375 25.0228 103.489 25.0228 103.625 25.0455C105.06 25.1139 106.495 25.3188 107.884 25.7288C110.526 26.5259 112.416 28.1429 113.395 30.7391C113.623 31.3313 113.783 31.9234 113.988 32.5155C114.01 32.5839 114.033 32.6522 114.079 32.6977C114.101 32.6977 114.124 32.6977 114.147 32.6749C114.147 30.352 114.147 28.029 114.147 25.706C117.199 25.706 120.228 25.706 123.257 25.706C123.257 33.4493 123.257 41.1925 123.257 48.9358C126.901 48.9358 130.499 48.9358 134.143 48.9358C134.143 41.1698 134.143 33.4265 134.143 25.6832C137.172 25.6832 140.201 25.6832 143.23 25.6832C143.23 25.7971 143.23 25.8882 143.23 25.9793C143.253 33.0166 143.253 40.0311 143.275 47.0683C143.275 47.4555 143.321 47.8427 143.389 48.2298C143.617 49.3685 144.232 49.9151 145.371 49.9607C146.145 49.9834 146.942 49.9607 147.716 49.9151C148.582 49.8696 149.151 49.4141 149.379 48.5714C149.516 48.0248 149.584 47.4555 149.607 46.8861C149.629 39.9172 149.629 32.9482 149.629 25.9565C149.629 25.8654 149.629 25.7743 149.629 25.6605C149.743 25.6605 149.812 25.6605 149.903 25.6605C152.863 25.6605 155.824 25.6605 158.785 25.6605C158.785 32.7433 158.785 39.8261 158.785 46.9317C158.762 47.0911 158.762 47.2505 158.739 47.3872C158.648 48.2981 158.625 49.2319 158.466 50.1429C157.828 53.8095 155.756 56.3147 152.248 57.5901C151.611 57.7267 151.041 57.8178 150.495 57.9545ZM105.789 44.677C108.522 44.677 111.209 44.677 113.896 44.677C113.896 42.6273 113.896 40.6004 113.896 38.5735C111.186 38.5735 108.499 38.5735 105.812 38.5735C105.812 38.4824 105.812 38.4141 105.812 38.3458C105.766 37.3437 105.743 36.3416 105.698 35.3168C105.652 34.3375 105.128 33.7453 104.172 33.5404C103.124 33.3126 102.077 33.3126 101.029 33.5176C100.209 33.677 99.6398 34.1325 99.4576 34.9752C99.3665 35.4762 99.2754 35.9772 99.2754 36.4783C99.2526 39.735 99.2526 43.0145 99.2754 46.2712C99.2754 46.8634 99.3209 47.4783 99.412 48.0704C99.5259 49.0497 100.072 49.619 101.006 49.8012C102.054 50.0062 103.101 50.0062 104.126 49.7785C104.718 49.6418 105.219 49.3458 105.447 48.7536C105.584 48.412 105.698 48.0248 105.721 47.6377C105.766 46.7495 105.766 45.8613 105.766 44.9503C105.812 44.882 105.789 44.7909 105.789 44.677ZM80.8965 44.9048C80.8737 44.8137 80.8737 44.7226 80.8509 44.6315C80.3727 42.1035 79.8944 39.5756 79.4162 37.0476C79.1656 35.7723 78.9379 34.4741 78.6874 33.1988C78.6646 33.1304 78.5963 33.0621 78.528 33.0393C78.4369 33.0166 78.323 33.0166 78.2091 32.9938C77.4803 36.9565 76.7288 40.9193 76 44.882C77.6398 44.9048 79.2567 44.9048 80.8965 44.9048Z" fill="white"/>
</svg>
