<svg width="224" height="82" viewBox="0 0 224 82" fill="none" xmlns="http://www.w3.org/2000/svg">
<path fill-rule="evenodd" clip-rule="evenodd" d="M95.7266 25.0479L95.7267 25.0479C95.8635 25.0738 95.9989 25.0994 96.1304 25.1412C97.1366 25.4678 97.7457 26.5006 97.5603 27.5686C97.3838 28.6014 96.4746 29.3693 95.4154 29.3517C94.3827 29.3428 93.4735 28.5661 93.3234 27.5598C93.1557 26.4564 93.7471 25.4502 94.7622 25.1324C94.8937 25.0906 95.0291 25.0649 95.1659 25.039L95.1659 25.039C95.2312 25.0267 95.2968 25.0143 95.3624 25C95.4066 25.0088 95.4684 25.0088 95.5302 25.0088C95.5957 25.0231 95.6613 25.0355 95.7266 25.0479ZM105.187 26.6683C105.178 25.6091 104.957 25.3089 103.995 25.0088C103.872 25.0088 103.757 25.0088 103.633 25C102.68 25.3178 102.45 25.6355 102.433 26.6683V26.9331V52.4075C102.433 52.6282 102.442 52.8489 102.459 53.0695C102.539 53.9257 103.024 54.3759 103.827 54.3583C104.622 54.3406 105.098 53.8728 105.16 53.0254C105.178 52.8224 105.178 52.6105 105.178 52.4075V35.557V35.0097H105.708C106.149 35.0097 106.59 35.0107 107.032 35.0117C107.914 35.0136 108.797 35.0156 109.68 35.0097C109.927 35.0097 110.183 34.992 110.421 34.9303C110.88 34.8155 111.145 34.4977 111.233 34.0387C111.401 33.1649 110.871 32.5558 109.909 32.547C108.857 32.5338 107.799 32.5354 106.741 32.5371L106.74 32.5371C106.387 32.5376 106.034 32.5382 105.681 32.5382C105.547 32.5382 105.42 32.5319 105.272 32.5247L105.272 32.5247L105.187 32.5205V31.9909C105.187 31.3995 105.188 30.8081 105.189 30.2167V30.215C105.191 29.0327 105.193 27.8505 105.187 26.6683ZM146.605 25.1411L146.605 25.1411C146.479 25.0989 146.354 25.0566 146.232 25.0088H145.976C145.89 25.0343 145.802 25.0553 145.715 25.0762C145.561 25.113 145.407 25.1498 145.261 25.2118C144.387 25.5737 143.848 26.527 143.981 27.4538C144.122 28.4778 144.864 29.2192 145.887 29.3428C146.823 29.4576 147.732 28.9103 148.103 28.0188C148.483 27.1272 148.227 26.0504 147.432 25.5031C147.185 25.3366 146.896 25.239 146.605 25.1411ZM70.9296 50.1743C73.0568 53.3167 76.1374 54.6407 79.8712 54.7202L79.9096 54.7184C80.2693 54.7013 80.6528 54.683 81.0364 54.6319C81.2835 54.6143 81.5307 54.5789 81.7778 54.5348C85.2027 53.9081 87.7095 52.1162 89.0247 48.8238C89.1748 48.4619 89.2365 48.0559 89.2277 47.6675C89.2189 47.1026 88.7952 46.6612 88.2391 46.52C87.6654 46.3788 87.1446 46.5641 86.8268 47.0673C86.6985 47.271 86.6025 47.4876 86.5057 47.706L86.5057 47.7061L86.4878 47.7464L86.4561 47.8175C85.9706 48.9209 85.3174 49.9007 84.3817 50.6775C81.257 53.2461 75.9697 52.5046 73.507 49.1239C71.7769 46.7495 71.4327 44.0573 71.9358 41.2415C72.6331 37.3224 75.2989 34.8332 79.1827 34.4713C82.2545 34.1888 85.2821 35.5835 86.5532 38.7523C86.6061 38.8759 86.6679 38.9995 86.7385 39.1054C87.1093 39.6703 87.7536 39.8822 88.398 39.6615C88.9806 39.4673 89.2895 38.9642 89.2277 38.2757C89.2012 38.0197 89.1306 37.7549 89.0335 37.5166C88.2656 35.6629 86.9592 34.2683 85.2027 33.3061C83.1195 32.1586 80.8598 31.8056 78.5119 32.0615C75.7049 32.3705 73.3305 33.5356 71.5298 35.7335C69.9321 37.6754 69.1818 39.9351 69.0318 42.4155C68.8641 45.196 69.3407 47.8352 70.9296 50.1743ZM146.135 41.418C146.453 41.042 146.77 40.6688 147.085 40.2975L147.087 40.2952L147.099 40.2813C147.895 39.3423 148.681 38.4162 149.462 37.4901C150.742 35.9807 152.022 34.4713 153.302 32.953C153.585 32.6264 153.893 32.3352 154.37 32.3263C154.917 32.3087 155.359 32.5117 155.624 32.9883C155.88 33.4562 155.853 33.9328 155.518 34.3477C155.173 34.7784 154.811 35.1963 154.45 35.6133L154.45 35.6134C154.293 35.7945 154.137 35.9754 153.982 36.1572C153.025 37.2602 152.066 38.3652 151.106 39.4703L151.025 39.5644C150.038 40.7008 149.052 41.8373 148.068 42.9716C148.021 43.0239 147.977 43.0794 147.93 43.138L147.93 43.1387L147.929 43.1391L147.929 43.1392C147.898 43.179 147.865 43.2202 147.829 43.2629C148.35 43.8543 148.869 44.4435 149.387 45.0326C149.906 45.6218 150.424 46.211 150.945 46.8024C151.473 47.4005 152 47.9986 152.527 48.5963L152.532 48.6028L152.533 48.6033L152.533 48.6039L152.534 48.6044C153.528 49.733 154.521 50.8603 155.518 51.9838C155.818 52.3281 156.038 52.6988 155.994 53.1666C155.95 53.7139 155.65 54.0935 155.138 54.2788C154.591 54.473 154.044 54.3141 153.629 53.8375C152.882 52.9675 152.143 52.0974 151.405 51.2274L151.402 51.2249C151.033 50.7894 150.663 50.3539 150.292 49.9183C149.652 49.1633 149.009 48.4083 148.367 47.6533C147.725 46.8989 147.083 46.1445 146.444 45.3901C146.346 45.2842 146.249 45.1783 146.126 45.0459C145.873 45.3419 145.623 45.6353 145.375 45.9271C144.815 46.5837 144.263 47.2315 143.707 47.8793C143.121 48.5671 142.536 49.2549 141.952 49.9423L141.945 49.9499L141.944 49.9514L141.943 49.952C140.858 51.2287 139.773 52.504 138.685 53.7757C138.129 54.4289 137.281 54.5348 136.699 54.0317C136.134 53.5462 136.098 52.7165 136.663 52.0721C138.142 50.385 139.628 48.7011 141.114 47.0166C142.084 45.916 143.055 44.8152 144.025 43.713C144.149 43.5718 144.272 43.4306 144.431 43.2452L144.294 43.0838C143.988 42.7248 143.688 42.3715 143.381 42.0183C142.685 41.216 141.988 40.4147 141.292 39.6138L141.291 39.6129L141.29 39.6123C139.849 37.955 138.409 36.299 136.981 34.639C136.76 34.383 136.575 34.0476 136.504 33.7298C136.381 33.209 136.699 32.7059 137.175 32.4676C137.696 32.2028 138.279 32.2557 138.685 32.6794C139.064 33.0728 139.422 33.4986 139.776 33.9188L139.776 33.919C139.874 34.0361 139.972 34.1528 140.071 34.2682C140.765 35.087 141.459 35.9057 142.152 36.724L142.153 36.7247C143.432 38.2354 144.711 39.7447 145.993 41.2503C146.002 41.3033 146.046 41.3474 146.135 41.418ZM117.424 33.8616C117.283 33.9941 117.14 34.1287 116.988 34.2594C116.98 34.1622 116.974 34.0674 116.968 33.9746L116.968 33.9744L116.968 33.9743C116.953 33.764 116.94 33.5638 116.909 33.3679C116.777 32.7059 116.344 32.3528 115.673 32.3352C114.791 32.3175 114.243 32.8206 114.234 33.7386C114.221 34.6853 114.223 35.6319 114.224 36.5785C114.225 36.8941 114.226 37.2098 114.226 37.5254V52.84C114.226 53.8375 114.693 54.3583 115.576 54.3759C116.45 54.3936 116.918 53.8993 116.962 52.9195V52.3899C116.962 48.4266 116.962 44.4721 116.971 40.5089C116.971 39.944 117.015 39.3614 117.121 38.8053C117.792 35.2922 120.855 33.6769 124.094 35.1156C125.03 35.5305 125.859 35.3275 126.195 34.6125C126.548 33.8622 126.23 33.0855 125.277 32.6706C122.894 31.629 120.537 31.6996 118.304 33.1296C117.99 33.3309 117.712 33.5918 117.424 33.8616L117.424 33.8616ZM129.116 43.3599C129.116 42.2974 129.115 41.2359 129.114 40.1747C129.112 38.0533 129.111 35.9332 129.116 33.8092C129.116 32.7412 129.84 32.1409 130.838 32.3528C131.323 32.4587 131.659 32.75 131.764 33.2443C131.826 33.5003 131.844 33.7651 131.844 34.0299V52.637C131.844 52.8577 131.835 53.0783 131.791 53.2902C131.641 54.0228 131.12 54.4024 130.361 54.3582C129.664 54.3229 129.205 53.8816 129.125 53.1578C129.112 53.0189 129.114 52.875 129.115 52.7299C129.116 52.6814 129.116 52.6327 129.116 52.584V43.3599ZM94.0738 34.1182V43.36V52.5488C94.0738 52.5929 94.0732 52.6371 94.0727 52.6812C94.071 52.8136 94.0693 52.946 94.0826 53.0784C94.1532 53.9081 94.621 54.3583 95.4066 54.3671C96.1922 54.376 96.6953 53.917 96.7836 53.1225C96.8101 52.9283 96.8101 52.743 96.8101 52.5488V34.1624C96.8101 33.9417 96.8013 33.721 96.7748 33.5003C96.6777 32.7324 96.2099 32.3264 95.4419 32.3264C94.6828 32.3352 94.1885 32.7501 94.1002 33.5003C94.0738 33.7034 94.0738 33.9152 94.0738 34.1182V34.1182Z" fill="white"/>
</svg>
