<svg width="224" height="82" viewBox="0 0 224 82" fill="none" xmlns="http://www.w3.org/2000/svg">
<path fill-rule="evenodd" clip-rule="evenodd" d="M112.43 75H111.269C111.159 74.9635 111.049 74.9286 110.939 74.8936C110.671 74.8086 110.403 74.7234 110.143 74.6158L110.138 74.6135L110.108 74.6011C103.812 71.9613 97.5158 69.3216 91.2198 66.673C90.8461 66.5167 90.4725 66.3609 90.0989 66.2052L90.0968 66.2043C88.4435 65.5151 86.7924 64.8268 85.1532 64.0909C84.0185 63.5817 83.268 62.6972 83.143 61.4017C83.1316 61.2749 83.1196 61.1482 83.1077 61.0215C83.0538 60.4514 83 59.8812 83 59.311V13.2803C83 12.7621 83.0357 12.2439 83.0893 11.7257C83.3216 9.7333 84.2508 8.62542 86.145 8.21443C86.9223 8.05361 87.7353 8.00893 88.5305 8.00893C104.068 8 119.605 8 135.142 8C135.723 8 136.303 8.03574 136.875 8.08935C139.028 8.29484 140.181 9.36698 140.547 11.4934C140.601 11.815 140.654 12.1367 140.708 12.4494V60.3652C140.698 60.4267 140.684 60.4868 140.67 60.5466L140.67 60.5467C140.647 60.6434 140.624 60.7394 140.619 60.8388C140.574 62.4649 139.77 63.5817 138.287 64.216C137.215 64.6806 136.134 65.1363 135.053 65.583C127.512 68.728 119.971 71.864 112.43 75ZM132.077 26.6374C132.088 26.6169 132.098 26.6004 132.107 26.5862C132.121 26.5633 132.131 26.5468 132.131 26.5302C132.123 25.8761 132.124 25.222 132.125 24.5682V24.5676C132.128 23.1407 132.131 21.7152 132.033 20.2939C131.899 18.3104 130.737 17.1221 128.754 16.8005C127.163 16.5503 125.546 16.5325 123.956 16.8362C122.419 17.1221 121.347 18.0513 120.99 19.6149C120.838 20.276 120.757 20.964 120.757 21.643C120.744 25.6234 120.746 29.6037 120.747 33.584C120.748 34.9108 120.748 36.2376 120.748 37.5643C120.748 38.0557 120.775 38.5471 120.82 39.0296C120.999 40.9595 122.062 42.2996 123.956 42.6123C125.262 42.8287 126.619 42.802 127.953 42.7757H127.953L128.084 42.7732C130.46 42.7285 132.042 41.2275 132.14 38.8509C132.208 37.322 132.207 35.793 132.207 34.2611C132.206 33.5908 132.206 32.92 132.211 32.2483C132.211 32.2113 132.199 32.1743 132.185 32.1343C132.179 32.1164 132.172 32.0979 132.167 32.0785H128.352V35.2324C128.349 35.5272 128.349 35.822 128.348 36.1166V36.1166V36.1168C128.348 36.8042 128.347 37.4902 128.316 38.1719C128.28 38.8777 127.878 39.253 127.172 39.2976C126.717 39.3244 126.252 39.3244 125.796 39.2887C125.198 39.244 124.849 38.9045 124.751 38.3148C124.715 38.0825 124.688 37.8413 124.688 37.609V21.8217C124.688 21.5894 124.706 21.3482 124.751 21.1159C124.84 20.6334 125.117 20.276 125.618 20.2224C126.163 20.1599 126.717 20.1331 127.253 20.1956C127.869 20.2671 128.146 20.6066 128.235 21.232C128.271 21.4822 128.289 21.7324 128.289 21.9915C128.295 22.9204 128.293 23.8533 128.291 24.785V24.7866V24.7876C128.29 25.2529 128.289 25.7178 128.289 26.1818C128.289 26.2577 128.294 26.3359 128.298 26.4141C128.303 26.4922 128.307 26.5704 128.307 26.6464C129.602 26.6374 130.844 26.6374 132.077 26.6374ZM102.173 42.6123C102.511 42.6123 102.844 42.6109 103.175 42.6094C103.992 42.6058 104.794 42.6022 105.595 42.6213C105.989 42.6302 106.096 42.5141 106.096 42.1209C106.082 40.0505 106.084 37.975 106.086 35.8982C106.086 35.2058 106.087 34.5133 106.087 33.8208C106.087 33.7193 106.093 33.6146 106.1 33.4992C106.105 33.4214 106.11 33.3388 106.114 33.249C106.395 33.249 106.673 33.2514 106.948 33.2539H106.948H106.948C107.583 33.2595 108.204 33.265 108.821 33.24C111.314 33.1418 112.743 31.8194 112.975 29.3624C113.052 28.5812 113.05 27.7869 113.048 26.9963C113.047 26.8646 113.047 26.7331 113.047 26.6017C113.045 26.188 113.045 25.7747 113.044 25.3617V25.3615C113.043 23.8123 113.042 22.2676 112.957 20.7228C112.868 19.0699 112.082 17.7922 110.438 17.2383C109.884 17.0507 109.276 16.9345 108.696 16.9256C107.134 16.8988 105.573 16.9021 104.012 16.9055C103.491 16.9066 102.971 16.9077 102.45 16.9077C102.396 16.9077 102.346 16.9143 102.29 16.9214C102.254 16.9261 102.216 16.931 102.173 16.9345V42.6123ZM91.5057 16.9256L91.5006 17.0291V17.0291C91.4936 17.1685 91.4878 17.2853 91.4878 17.4081C91.4878 25.6457 91.4878 33.8833 91.4789 42.1209C91.4789 42.5051 91.5771 42.6213 91.9703 42.6213C93.9332 42.6079 95.8961 42.6096 97.8591 42.6112H97.8606C98.5149 42.6118 99.1693 42.6123 99.8237 42.6123C99.919 42.6123 100.014 42.6044 100.109 42.5965L100.11 42.5965C100.157 42.5925 100.205 42.5885 100.253 42.5855V39.0207C99.8316 39.0207 99.4136 39.0192 98.9979 39.0177H98.9978C97.9666 39.0141 96.9496 39.0105 95.9372 39.0296C95.5351 39.0385 95.4101 38.9403 95.4101 38.5203C95.4235 36.8381 95.4218 35.1509 95.4201 33.4661V33.4653C95.4195 32.9044 95.419 32.3438 95.419 31.7837V31.3012H99.9935V27.7185H95.4547V20.4726H100.19V16.9435C97.2865 16.9256 94.4186 16.9256 91.5061 16.9256H91.5057ZM114.816 16.9256V42.5677H118.676V16.9256H114.816ZM109.107 48.8486V56.5949H111.144V52.1276C111.531 52.7228 111.893 53.2822 112.251 53.8364C112.539 54.2805 112.824 54.7212 113.118 55.1743C113.55 54.5214 113.963 53.8866 114.372 53.2583L114.373 53.258L114.373 53.2572C114.608 52.8971 114.841 52.5391 115.075 52.1812C115.088 52.1857 115.104 52.1901 115.12 52.1946L115.12 52.1946C115.135 52.1991 115.151 52.2036 115.164 52.208V56.6038H117.183V48.8397C117.004 48.8397 116.826 48.8412 116.648 48.8427H116.648C116.209 48.8463 115.776 48.8499 115.343 48.8308C115.075 48.8218 114.941 48.9291 114.816 49.1435C114.596 49.5247 114.362 49.8966 114.128 50.2693L114.128 50.2703C114.038 50.4126 113.949 50.555 113.86 50.6981C113.791 50.8087 113.724 50.9186 113.656 51.029C113.493 51.2932 113.328 51.5608 113.145 51.8506C113.096 51.7759 113.054 51.7136 113.017 51.6586L113.017 51.6585L113.017 51.6584C112.965 51.5821 112.922 51.5198 112.886 51.4575C112.74 51.2205 112.595 50.9826 112.449 50.7444C112.123 50.2104 111.796 49.6748 111.456 49.1435C111.376 49.0184 111.233 48.8576 111.117 48.8486C110.677 48.8368 110.234 48.8407 109.786 48.8447H109.786C109.56 48.8466 109.334 48.8486 109.107 48.8486ZM100.948 65.8361C100.947 65.8412 100.946 65.8461 100.945 65.851C100.943 65.8589 100.942 65.8668 100.941 65.8754C100.941 65.8791 100.941 65.8828 100.941 65.8868C100.951 65.8914 100.962 65.8963 100.973 65.9013C100.987 65.9081 101.002 65.9151 101.017 65.9223C101.055 65.9409 101.094 65.9601 101.137 65.9761C104.559 67.1555 107.981 68.3348 111.412 69.4963C111.599 69.5589 111.85 69.5321 112.046 69.4695C114.375 68.7071 116.704 67.9368 119.033 67.1665C120.197 66.7813 121.362 66.3961 122.526 66.0119C122.609 65.9865 122.687 65.9522 122.763 65.9184C122.795 65.9046 122.826 65.8908 122.857 65.8778C122.852 65.8689 122.85 65.86 122.848 65.851C122.846 65.8421 122.844 65.8332 122.839 65.8242C115.54 65.8153 108.249 65.8153 100.949 65.8153C100.949 65.8228 100.949 65.8296 100.948 65.8361ZM98.6444 49.8136C97.4739 48.8218 96.1516 48.5002 94.7042 48.7682C93.1139 49.072 92.006 49.9923 91.5503 51.5647C91.0947 53.1283 91.4074 54.5489 92.6225 55.6836C94.0699 57.0327 96.5001 57.1399 98.3495 55.9784C98.7516 55.7282 98.9749 55.4513 98.9124 54.942C98.8756 54.6477 98.8851 54.3535 98.8947 54.0564C98.8991 53.9204 98.9035 53.7839 98.9035 53.6465V52.0919H95.4101V53.6644H96.9557C96.9081 53.8072 96.9248 53.9568 96.9408 54.1008C96.9699 54.362 96.997 54.6046 96.6341 54.7544C95.4815 55.219 93.918 54.8795 93.5695 53.2712C93.2211 51.6541 94.4541 50.162 96.1606 50.6445C96.4551 50.727 96.7303 50.8677 97.0142 51.0129L97.0143 51.013C97.1609 51.088 97.3098 51.1642 97.465 51.2342L97.6796 50.9781L97.68 50.9776C97.984 50.6151 98.3055 50.2318 98.6444 49.8136ZM124.903 48.8755H118.801V56.6127H124.957V54.8258H120.856V53.5214H124.474V51.8417H120.865V50.5998H124.912C124.903 50.0101 124.903 49.4473 124.903 48.8755ZM108.213 56.6306C108.186 56.5145 108.169 56.443 108.142 56.3805L108.141 56.3793C107.114 53.9316 106.087 51.4839 105.041 49.0452C104.988 48.9201 104.765 48.795 104.613 48.7861C104.357 48.7657 104.102 48.7686 103.848 48.7715C103.658 48.7737 103.469 48.7759 103.281 48.7682C103.022 48.7593 102.915 48.8755 102.826 49.0899C102.385 50.1443 101.941 51.1957 101.498 52.2458L101.498 52.2466C101.186 52.9847 100.875 53.7221 100.565 54.4595C100.449 54.7389 100.333 55.0184 100.217 55.3011L100.216 55.3018L100.216 55.3025C100.038 55.7335 99.857 56.1723 99.6629 56.6306C99.7845 56.6306 99.8985 56.6317 100.007 56.6327H100.007C100.21 56.6347 100.394 56.6364 100.574 56.6306C100.694 56.628 100.821 56.636 100.949 56.644C101.259 56.6636 101.571 56.6832 101.78 56.5502C101.983 56.4195 102.076 56.1117 102.167 55.809L102.167 55.8089C102.2 55.698 102.233 55.5877 102.272 55.487C102.352 55.2636 102.477 55.1564 102.727 55.1654C103.096 55.1788 103.464 55.1771 103.833 55.1754C103.956 55.1749 104.079 55.1743 104.202 55.1743C104.816 55.1743 105.122 55.1743 105.334 55.3158C105.543 55.456 105.659 55.7352 105.89 56.2911C105.9 56.3115 105.908 56.3346 105.916 56.3572C105.928 56.394 105.94 56.4298 105.962 56.4519C105.978 56.4664 105.995 56.4823 106.012 56.4985C106.078 56.5624 106.15 56.6306 106.221 56.6306H108.213ZM125.662 55.4959C127.288 56.72 129.004 57.1041 130.871 56.443C131.827 56.1035 132.301 55.3262 132.336 54.2987C132.363 53.298 131.854 52.6369 130.969 52.2616C130.702 52.1495 130.425 52.0678 130.149 51.9861L130.149 51.9861C130.029 51.9507 129.909 51.9153 129.79 51.8775C129.653 51.8358 129.513 51.8 129.373 51.7643C129.093 51.6928 128.813 51.6213 128.557 51.5022C128.37 51.4129 128.155 51.1269 128.182 50.9572C128.209 50.7785 128.477 50.573 128.682 50.5105C128.906 50.439 129.191 50.4569 129.424 50.5283C129.818 50.6472 130.203 50.7968 130.605 50.9524L130.605 50.9524L130.606 50.9528C130.777 51.0193 130.951 51.0869 131.13 51.1538C131.305 50.8989 131.496 50.6283 131.692 50.3512L131.693 50.3497C131.826 50.161 131.961 49.9694 132.095 49.7778C130.925 48.7057 128.682 48.384 127.324 49.0809C126.449 49.5366 126.029 50.2782 126.029 51.252C126.029 52.2527 126.6 52.8781 127.494 53.2266C127.711 53.3135 127.942 53.3789 128.17 53.4436C128.27 53.4721 128.37 53.5004 128.468 53.5303C128.597 53.5683 128.727 53.6034 128.856 53.6384C129.184 53.7272 129.512 53.8158 129.826 53.9503C130.005 54.0217 130.228 54.3076 130.201 54.4506C130.174 54.6382 129.933 54.8794 129.736 54.9331C128.915 55.1385 128.155 54.8705 127.44 54.4774C127.294 54.3944 127.156 54.3069 127.011 54.2148L127.011 54.2147L127.011 54.2146C126.953 54.1778 126.894 54.1403 126.833 54.1021C126.44 54.5578 126.073 54.9956 125.662 55.4959ZM106.104 29.8181V20.4279C106.318 20.4279 106.531 20.424 106.743 20.4201L106.743 20.4201C107.249 20.4108 107.749 20.4017 108.24 20.4457C108.669 20.4815 108.937 20.8299 109.026 21.2498C109.08 21.509 109.115 21.777 109.115 22.045C109.124 24.0642 109.124 26.0924 109.115 28.1116C109.115 29.3713 108.687 29.8002 107.427 29.8091C107.107 29.8225 106.787 29.8209 106.452 29.8192L106.451 29.8192C106.338 29.8186 106.222 29.8181 106.104 29.8181ZM103.067 53.4768H104.8C104.713 53.2549 104.629 53.0394 104.546 52.8259C104.347 52.3171 104.154 51.8201 103.934 51.2789C103.748 51.7555 103.575 52.1914 103.408 52.6143C103.292 52.9049 103.18 53.1893 103.067 53.4768Z" fill="white"/>
</svg>
