<svg width="224" height="82" viewBox="0 0 224 82" fill="none" xmlns="http://www.w3.org/2000/svg">
<path fill-rule="evenodd" clip-rule="evenodd" d="M111.687 26.3602C110.152 24.9472 108.35 24.2032 106.277 24.001L88.8899 24V26.3602C88.8899 26.3623 111.687 26.3602 111.687 26.3602ZM116.266 24.0021L128.843 24.0011L129.666 26.3623C129.669 26.3607 126.321 26.3615 122.972 26.3623C119.622 26.3631 116.271 26.3639 116.271 26.3623C116.27 26.3581 116.262 24.0021 116.266 24.0021ZM152.376 26.3581H138.83L139.665 24.0021H152.376V26.3581ZM86.8389 24.0022H71.0022V26.3572H86.8389V24.0022ZM137.278 30.7762H152.376V28.4327H138.097C138.102 28.4338 137.278 30.7762 137.278 30.7762ZM131.221 30.7794H116.265V28.4327H130.402L131.221 30.7794ZM113.629 28.8438L113.629 28.8432C113.573 28.7084 113.517 28.5719 113.463 28.4318H88.895V30.7753H114.119C114.119 30.0322 113.881 29.454 113.629 28.8438ZM86.8377 28.4318H71.001V30.7753H86.8377V28.4318ZM136.562 32.8518L135.733 35.2068L147.899 35.2016V32.8549L136.562 32.8518ZM131.95 32.8511L132.775 35.2071H120.724V32.8511H131.95ZM113.985 35.2071C114.218 34.5006 114.318 33.6586 114.318 32.8511H107.078V35.2071H113.985ZM82.2224 32.8624H75.4153V35.2059H82.2224V32.8624ZM93.4766 32.8511H100.272V35.206H93.4766V32.8511ZM127.418 37.7494C127.418 37.7494 127.42 39.5323 127.418 39.5355H120.724V37.192H133.48L134.273 39.3771C134.275 39.3776 134.488 38.7669 134.688 38.1908L134.691 38.1834C134.869 37.6713 135.037 37.189 135.038 37.1909H147.894V39.5355H141.233C141.232 39.5323 141.229 37.7494 141.229 37.7494L140.613 39.5355L128.033 39.5323L127.418 37.7494ZM112.983 37.1921H93.4766C93.4766 37.1963 93.4766 39.5325 93.4756 39.5366C93.4756 39.5397 111.048 39.5366 111.048 39.5366C111.782 38.9304 112.556 37.9776 112.983 37.1921ZM112.983 37.1921H112.983V37.191L112.983 37.1921ZM82.2224 37.191H75.4153V39.5356H82.2224V37.191ZM141.233 41.6113H147.895V43.9548H141.233V41.6113ZM127.418 41.6113H120.724V43.9548C120.723 43.9543 122.396 43.9546 124.07 43.9548H124.106H124.122H124.146C125.795 43.9551 127.42 43.9553 127.42 43.9548C127.42 43.9538 127.428 41.6113 127.418 41.6113ZM139.486 42.772L139.486 42.7715L139.487 42.7698L139.487 42.7694L139.487 42.7685C139.681 42.1883 139.872 41.6128 139.888 41.6112H128.753C128.753 41.6096 128.884 41.9799 129.042 42.4269L129.045 42.4338L129.05 42.4484L129.052 42.4526L129.054 42.4591C129.291 43.1305 129.584 43.9564 129.588 43.9589L139.076 43.9547C139.092 43.9542 139.29 43.3612 139.486 42.772ZM93.4766 41.61H111.016C111.817 42.2831 112.54 43.1136 113.107 43.9545C113.123 43.954 108.341 43.9543 103.494 43.9545H103.428H103.383H103.353H103.333H103.32H103.311H103.213H103.174H103.116C98.2683 43.9548 93.4776 43.955 93.4776 43.9545C93.4766 43.9535 93.4766 41.6131 93.4766 41.61ZM82.2214 41.6113V43.9548C82.2183 43.9548 75.4257 43.9538 75.4268 43.9548C75.4278 43.9548 75.4268 41.6113 75.4268 41.6113H82.2214ZM147.894 46.0303H141.233V48.3748H147.894V46.0303ZM120.724 46.0303H127.419V48.3738H120.724V46.0303ZM137.518 48.3852C137.52 48.3748 138.339 46.0282 138.352 46.0303H130.286C130.272 46.0292 131.113 48.3748 131.113 48.3748C131.113 48.3748 137.517 48.3946 137.518 48.3852ZM93.4766 46.0292V48.3737C93.4766 48.3717 99.8921 48.3745 100.347 48.3747L100.373 48.3748C100.379 48.3748 100.373 46.0292 100.373 46.0292H93.4766ZM114.074 46.0292C114.374 46.663 114.431 47.4051 114.488 48.1342L114.488 48.1355C114.494 48.2186 114.501 48.3016 114.507 48.3841H107.2V46.0292H114.074ZM75.4268 46.0292H82.2214V48.3727H75.4268V46.0292ZM152.376 50.3588H141.233V52.7033H152.376V50.3588ZM116.265 50.3588H127.418V52.7033H116.265V50.3588ZM136.02 52.7033H132.617L131.801 50.3588H136.806L136.02 52.7033ZM71.0012 52.7023V50.3588L86.8266 50.3598C86.8228 50.3598 86.8246 50.9933 86.8264 51.6015V51.6023V51.6035V51.6052V51.6079C86.828 52.1678 86.8295 52.7043 86.8266 52.7023H71.0012ZM114.218 50.3588C114.202 50.4313 114.187 50.5053 114.171 50.5805C114.019 51.3061 113.846 52.1339 113.339 52.7033L113.13 52.7023H88.894V50.3588H114.218ZM134.164 57.1277H134.477L135.293 54.778H133.369L134.164 57.1277ZM152.375 54.778H141.232V57.1329H152.375V54.778ZM88.8911 54.7822V57.1278L88.8942 57.1299L105.911 57.134C108.18 57.1007 110.286 56.265 111.821 54.7854L88.8911 54.7822ZM127.418 54.778H116.265V57.1329H127.418V54.778ZM86.8265 57.1278C86.8193 57.1278 86.8265 54.7885 86.8265 54.7885C86.8193 54.7958 70.996 54.7822 71.0012 54.7822C71.0033 54.7822 71.0022 55.3685 71.0012 55.9555C71.0002 56.5426 70.9991 57.1304 71.0012 57.133C71.0053 57.1372 86.8327 57.1278 86.8265 57.1278Z" fill="white"/>
</svg>
