<svg width="224" height="82" viewBox="0 0 224 82" fill="none" xmlns="http://www.w3.org/2000/svg">
<path fill-rule="evenodd" clip-rule="evenodd" d="M47 28H52.6849C52.6849 35.1022 52.6849 42.2044 52.669 49.3385H65.4562V54.4183H47V28ZM81.4434 34.386C83.3862 35.1503 84.8512 36.472 85.8703 38.3033C86.571 39.5613 87.0328 40.899 87.2717 42.3003C87.3035 42.4755 87.2876 42.571 87.0965 42.6506C84.6123 43.6857 82.1441 44.7208 79.6599 45.7718C78.5794 46.2246 77.4949 46.6815 76.4105 47.1383L76.4102 47.1384L76.4083 47.1392L76.4061 47.1401L76.4034 47.1413C75.3166 47.5991 74.2297 48.0569 73.1469 48.5107L73.0195 48.5744C73.4972 49.0203 74.0068 49.3866 74.5801 49.6414C76.0929 50.3102 77.6694 50.3261 79.2618 50.1191C80.7427 49.928 81.9689 49.1796 83.1473 48.3197C83.3384 48.1763 83.4658 48.1763 83.6569 48.3197C84.4868 48.9484 85.3167 49.5573 86.1624 50.1777C86.3876 50.3429 86.614 50.509 86.8417 50.6764C86.1729 51.4408 85.4085 52.0459 84.5645 52.5396C81.316 54.4505 77.8604 55.0556 74.166 54.2275C72.4303 53.8454 70.8538 53.1128 69.5002 51.9663C67.86 50.5809 66.7772 48.8452 66.2835 46.7591C65.6466 44.1157 65.8854 41.5519 67.1434 39.1314C68.4174 36.6472 70.4398 34.9911 73.0832 34.1312C75.8858 33.2235 78.6885 33.319 81.4434 34.386ZM71.4439 44.6051C71.4493 44.7371 71.4547 44.8711 71.4589 45.0074C72.7751 44.4595 74.0788 43.9191 75.3741 43.3822L75.379 43.3802L75.3793 43.38C77.3575 42.5601 79.3158 41.7484 81.2682 40.9308C80.8542 39.8161 79.644 38.7014 78.4337 38.3033C77.2553 37.9211 76.0769 38.0008 74.9145 38.367C73.8953 38.6855 73.0832 39.3066 72.5099 40.2142C71.8729 41.2334 71.4908 42.3481 71.4271 43.5583C71.4154 43.8966 71.4294 44.2434 71.4439 44.6051ZM170.652 34.7675C174.187 36.3121 176.289 39.067 176.83 42.9207C177.085 44.7679 176.926 46.5673 176.241 48.3031C175.381 50.4528 173.916 52.093 171.926 53.2714C170.11 54.3383 167.961 54.832 165.954 54.832C163.343 54.8001 160.954 54.0835 158.884 52.4434C156.718 50.7235 155.444 48.4623 155.078 45.7074C154.791 43.5099 155.142 41.4079 156.193 39.4492C157.26 37.4746 158.804 35.9618 160.827 34.9904C164.059 33.4298 167.371 33.3343 170.652 34.7675ZM170.254 47.9368C171.066 46.854 171.384 45.5959 171.384 44.2105C171.416 43.1118 171.161 42.0289 170.524 41.0575C169.505 39.5288 168.072 38.6848 166.241 38.6052C164.25 38.5256 162.626 39.2422 161.511 40.9142C160.444 42.5226 160.253 44.3061 160.811 46.1374C161.209 47.475 162.021 48.5101 163.199 49.2585C164.171 49.8636 165.222 50.1025 166.368 50.0229C167.977 49.9114 169.282 49.2267 170.254 47.9368ZM129.456 35.946C126.621 33.9714 123.468 33.4937 120.14 34.2739C117.306 34.9268 115.044 36.4874 113.5 38.9875C111.668 41.9494 111.414 45.1183 112.672 48.3509C113.85 51.3765 116.095 53.3352 119.153 54.3862C121.016 55.0232 122.927 55.1506 124.87 54.8321C126.987 54.4818 128.882 53.6378 130.491 52.1887C132.768 50.1185 133.851 47.5229 133.883 44.4654V43.9877C133.66 40.5959 132.227 37.8887 129.456 35.946ZM128.325 44.4495C128.325 45.6438 128.054 46.7585 127.417 47.7617C126.637 49.0038 125.507 49.7841 124.073 50.0708C122.497 50.3892 121.032 50.1026 119.742 49.1153C118.102 47.8414 117.401 46.1216 117.497 44.0673C117.56 42.873 117.895 41.7742 118.611 40.8188C119.551 39.5608 120.825 38.892 122.385 38.7646C123.596 38.6531 124.758 38.892 125.793 39.5608C127.433 40.5959 128.245 42.1087 128.341 44.0355C128.325 44.1628 128.325 44.3061 128.325 44.4493V44.4495ZM102.416 33.9875C103.802 34.1149 105.108 34.5448 106.27 35.3251C108.531 36.8698 109.63 39.0514 109.678 41.7585C109.689 44.5505 109.685 47.3426 109.681 50.1346C109.68 51.5307 109.678 52.9267 109.678 54.3227V54.6571H104.12V54.3705V43.2394C104.12 42.0611 103.754 41.026 102.926 40.182C102.098 39.3539 101.079 38.8762 99.9164 38.7647C98.8017 38.6533 97.7347 38.8444 96.7793 39.4654C95.5213 40.2935 94.8047 41.4559 94.7728 42.9528C94.7387 44.7955 94.7452 46.6382 94.7517 48.4808C94.7543 49.2179 94.7569 49.9549 94.7569 50.692V54.5456V54.8164H89.2153V34.4015H94.741V37.1405C94.7489 37.1405 94.7609 37.1445 94.7728 37.1484C94.7848 37.1524 94.7967 37.1564 94.8047 37.1564L95.1391 36.7742C97.0818 34.5767 99.5342 33.7168 102.416 33.9875ZM155.985 34.2422H155.698H149.95C149.742 34.2422 149.663 34.3218 149.583 34.497C148.403 37.7624 147.212 41.0179 146.02 44.2791L146.019 44.281C145.7 45.1542 145.38 46.0277 145.061 46.9019L145.061 46.9025L145.06 46.9034C144.901 47.3329 144.742 47.7624 144.567 48.2396C144.549 48.197 144.533 48.1637 144.519 48.1353C144.497 48.0893 144.481 48.056 144.472 48.0166C142.815 43.5101 141.175 39.0035 139.535 34.4811C139.455 34.274 139.36 34.2422 139.169 34.2422H133.452H133.165C133.171 34.2634 133.174 34.2811 133.177 34.2959C133.183 34.3254 133.187 34.343 133.197 34.3537C133.532 35.1738 133.87 35.9939 134.208 36.814C134.547 37.6341 134.885 38.4542 135.22 39.2742C135.857 40.8275 136.498 42.3847 137.139 43.9419L137.14 43.9435C137.78 45.499 138.421 47.0544 139.057 48.6058L139.058 48.6078C139.87 50.5658 140.682 52.5239 141.478 54.4978C141.542 54.657 141.621 54.6889 141.78 54.6889H147.497C147.64 54.6889 147.72 54.657 147.784 54.5137C148.413 52.9531 149.046 51.3885 149.679 49.8239C150.312 48.2594 150.945 46.6949 151.574 45.1344C152.219 43.542 152.86 41.9536 153.501 40.3652C154.142 38.7767 154.783 37.1882 155.427 35.5958C155.547 35.316 155.661 35.0363 155.776 34.7526L155.777 34.7502C155.845 34.5825 155.914 34.4134 155.985 34.2422Z" fill="white"/>
</svg>
