    <svg
            viewBox="0 0 283 67"
            fill="none"
            xmlns="http://www.w3.org/2000/svg"
          >
            <path
              d="M46.5879 65L46.1079 13.352L32.7639 58.472H22.6839L9.33988 13.352L8.85988 65H0.891875L1.46788 2.12H13.5639L27.7719 51.176L41.8839 2.12H53.9799L54.5559 65H46.5879ZM107.185 2.12L88.9449 43.4V65H80.7849V43.4L62.5449 2.12H71.8569L84.9129 34.76L98.0649 2.12H107.185ZM132.357 0.967995C139.909 0.967995 145.477 2.43999 149.061 5.384C152.645 8.328 154.437 12.456 154.437 17.768V20.168C154.437 23.88 153.413 27.176 151.365 30.056C149.317 32.872 146.373 34.856 142.533 36.008L158.853 65H149.733L134.469 37.736C133.957 37.8 132.933 37.832 131.397 37.832C128.837 37.832 126.309 37.736 123.813 37.544V65H115.653V1.352C122.821 1.09599 128.389 0.967995 132.357 0.967995ZM132.165 7.88C130.053 7.88 127.269 7.944 123.813 8.07199V30.728C127.269 31.048 130.149 31.208 132.453 31.208C141.669 31.208 146.277 27.464 146.277 19.976V18.056C146.277 14.6 145.157 12.04 142.917 10.376C140.677 8.712 137.093 7.88 132.165 7.88ZM175.657 2.12V65H167.497V2.12H175.657ZM213.419 2.12L232.715 65H223.883L219.755 50.408H196.619L192.491 65H184.139L203.339 2.12H213.419ZM208.235 9.608L198.635 43.112H217.739L208.235 9.608ZM258.752 0.967995C266.368 0.967995 272.224 3.144 276.32 7.496C280.48 11.784 282.56 17.992 282.56 26.12V41.864C282.56 49.672 280.48 55.688 276.32 59.912C272.224 64.072 266.208 66.152 258.272 66.152C252.832 66.152 247.136 65.96 241.184 65.576V1.352C246.944 1.09599 252.8 0.967995 258.752 0.967995ZM258.272 7.88C256.288 7.88 253.312 7.944 249.344 8.07199V58.568C253.12 58.952 256.096 59.144 258.272 59.144C263.2 59.144 267.104 57.736 269.984 54.92C272.928 52.04 274.4 47.912 274.4 42.536V25.544C274.4 19.72 272.992 15.336 270.176 12.392C267.36 9.384 263.392 7.88 258.272 7.88Z"
              fill="white"
            />
          </svg>