<svg width="224" height="82" viewBox="0 0 224 82" fill="none" xmlns="http://www.w3.org/2000/svg">
<path fill-rule="evenodd" clip-rule="evenodd" d="M99.6667 20C99.9379 20.1512 100.195 20.2826 100.438 20.4072L100.438 20.4072C100.899 20.6431 101.313 20.8549 101.688 21.1312C103.181 22.2323 104.146 23.7556 104.931 25.3997C106.364 28.4163 106.997 31.6139 107.329 34.9623H99.6667V20ZM125.338 59.7435H117.465V20.0603C117.691 20.1759 117.912 20.2781 118.126 20.3769C118.554 20.5747 118.953 20.7591 119.305 21.0105C120.934 22.1568 121.959 23.8009 122.789 25.5656C124.131 28.4464 124.78 31.5233 125.051 34.6606C125.232 36.8325 125.308 39.0195 125.323 41.2066C125.345 45.595 125.343 49.9834 125.34 54.3782C125.339 55.8441 125.338 57.3107 125.338 58.7782V59.7435ZM81.884 20.1809C82.9851 20.377 83.7845 20.9351 84.4934 21.6138C86.3033 23.3483 87.3591 25.5353 88.1284 27.8732C89.2898 31.4479 89.7121 35.1432 89.7422 38.8687C89.7746 43.6957 89.7684 48.5305 89.7622 53.362C89.7598 55.2938 89.7573 57.2251 89.7573 59.1552C89.7573 59.2986 89.7461 59.4532 89.7333 59.6289L89.7272 59.7133H81.884V20.1809ZM73 20.2112V59.7285C75.6244 59.7285 78.2036 59.7285 80.813 59.7134V20.2112H73ZM144.131 59.7284H151.929V20.2413H144.131V59.7284ZM108.565 59.7283H116.439V59.0496C116.439 57.2808 116.442 55.512 116.445 53.7432C116.454 49.0264 116.463 44.3095 116.409 39.5926C116.378 37.1643 116.167 34.7209 115.835 32.3076C115.413 29.1553 114.493 26.1387 112.698 23.4388C111.884 22.202 110.903 21.1311 109.546 20.4826C109.354 20.3918 109.136 20.3348 108.908 20.2754C108.796 20.246 108.68 20.2159 108.565 20.1809V59.7283ZM126.363 59.7435H134.176C134.186 59.6895 134.196 59.6435 134.205 59.6024C134.223 59.5171 134.237 59.4527 134.237 59.3815C134.223 57.1057 134.216 54.8299 134.21 52.5542C134.193 47.0924 134.177 41.6306 134.071 36.1689C133.995 32.8054 133.317 29.4871 132.019 26.3348C131.175 24.2835 130.089 22.3982 128.264 21.0558C127.892 20.7873 127.471 20.5895 127.015 20.3753L127.015 20.3753L127.015 20.3753L127.015 20.3753L127.015 20.3753C126.804 20.2766 126.587 20.1745 126.363 20.0603V59.7435ZM143.075 20.2112V59.7737C142.004 59.5776 141.19 59.0196 140.451 58.3257C138.762 56.7119 137.721 54.6757 136.967 52.4886C135.353 47.7224 135.066 42.8054 135.232 37.828C135.368 34.1026 135.836 30.4223 137.163 26.8929C137.932 24.8266 138.973 22.911 140.662 21.4178C141.341 20.8447 142.065 20.3168 143.075 20.2112ZM98.6109 60V20.1207C98.437 20.1923 98.2631 20.2483 98.0957 20.3022C97.7694 20.4073 97.4676 20.5045 97.2383 20.6939L97.1582 20.7597C96.3386 21.4326 95.4974 22.1233 94.8402 22.9412C93.4375 24.6909 92.6381 26.7572 92.0498 28.899C90.7678 33.6049 90.5566 38.4012 90.8281 43.2429C91.0393 46.9231 91.6124 50.543 93.0755 53.9517C93.8296 55.7014 94.7798 57.3303 96.273 58.552C96.7195 58.9173 97.2205 59.2006 97.7715 59.5123L97.7716 59.5123C98.0397 59.664 98.3197 59.8223 98.6109 60ZM107.091 46.8218C107.202 46.2116 107.314 45.5968 107.435 44.9773H107.433C104.719 44.9773 102.2 44.9773 99.6819 44.9924V59.7887C101.13 59.4418 102.125 58.5972 103 57.5715C104.72 55.5504 105.7 53.1673 106.318 50.6334C106.626 49.3837 106.856 48.1132 107.091 46.8218Z" fill="white"/>
</svg>
