<svg width="224" height="82" viewBox="0 0 224 82" fill="none" xmlns="http://www.w3.org/2000/svg">
<path fill-rule="evenodd" clip-rule="evenodd" d="M158.317 55.2011H155.458V52.8446C152.956 54.9331 150.22 55.659 147.16 54.9554C145.094 54.4752 143.419 53.3584 142.123 51.6832C139.499 48.2881 139.633 43.4747 142.469 40.2471C144.133 38.3709 146.233 37.3323 148.757 37.1759C151.27 37.0307 153.459 37.8125 155.458 39.5324V35.1992V31H158.317V55.2011ZM149.304 40.0573C145.92 40.0573 143.162 42.8046 143.162 46.1662C143.162 49.5501 145.931 52.3086 149.349 52.2974C152.699 52.2974 155.48 49.5054 155.469 46.155C155.458 42.8046 152.688 40.0573 149.304 40.0573ZM73.1882 34.3394C73.1823 34.2692 73.1762 34.1951 73.1718 34.1158C73.0378 34.1047 72.9596 34.0935 72.8814 34.0712C71.7981 34.0712 70.7149 34.0705 69.6316 34.0698C66.3817 34.0677 63.1318 34.0656 59.8818 34.0823C59.6473 34.0935 59.3681 34.261 59.1894 34.4397C54.9344 38.6724 50.6906 42.9051 46.4467 47.1377C46.3239 47.2718 46.201 47.4058 46 47.6291H46.7148H58.8767C59.6138 47.6291 59.6138 47.6291 59.6138 48.3662V60.4947C59.6138 60.6022 59.621 60.7097 59.6292 60.8334C59.6355 60.9282 59.6425 61.0325 59.6473 61.1536C59.8037 61.0196 59.8819 60.9526 59.96 60.8744C61.0373 59.7999 62.1153 58.7254 63.1934 57.6507L63.2005 57.6437C66.4455 54.4092 69.6921 51.1731 72.9261 47.9307C73.0936 47.7632 73.1941 47.4504 73.1941 47.2047C73.2109 44.0637 73.2088 40.9227 73.2067 37.7817C73.206 36.7347 73.2053 35.6877 73.2053 34.6407C73.2053 34.5461 73.1971 34.4473 73.1882 34.3395L73.1882 34.3394ZM80.0157 61.1357C80.0205 61.2015 80.0254 61.2669 80.029 61.3323C81.0006 61.3323 81.9611 61.3323 82.9327 61.3435C82.9286 61.3066 82.923 61.2713 82.9175 61.2369L82.9175 61.2368C82.9081 61.1774 82.8992 61.1209 82.8992 61.0643V53.1685C82.8992 53.0932 82.9117 53.0241 82.9274 52.9378L82.9274 52.9377C82.9327 52.9089 82.9383 52.8782 82.9438 52.8446C87.3999 56.6083 93.1067 55.2234 95.8652 52.0629C98.7019 48.8018 98.8694 43.8879 96.1556 40.4928C94.7708 38.7618 92.9839 37.6338 90.8061 37.2317C87.8689 36.6845 85.2556 37.4216 82.888 39.4318V37.0977H79.9955V37.7566V60.7181C79.9955 60.8612 80.0056 60.9992 80.0157 61.1355L80.0157 61.1357ZM89.0192 52.2192C85.6465 52.2081 82.888 49.4384 82.8992 46.0768C82.9103 42.7041 85.68 39.9456 89.0416 39.9567C92.4367 39.9567 95.2063 42.7488 95.1952 46.1327C95.184 49.4719 92.392 52.2304 89.0192 52.2192ZM104.844 53.8833C108.306 55.9382 114.047 55.6255 117.419 51.1471C116.716 50.4994 116.023 49.8628 115.286 49.2039C113.097 51.9066 110.384 52.9452 107.067 51.7167C105.157 51.0131 103.995 49.5389 103.426 47.5287H110.808H118.212C118.212 47.3303 118.214 47.1397 118.215 46.9542V46.9531V46.9522C118.217 46.5956 118.22 46.2581 118.212 45.9205C118.134 40.4482 113.544 36.4054 108.228 37.1089C104.364 37.6227 101.293 40.504 100.511 44.3458C99.7516 48.0759 101.516 51.9066 104.844 53.8833ZM115.096 44.6027H103.493C103.951 41.8777 106.776 39.8228 109.814 39.9568C112.36 40.0685 114.907 42.2909 115.096 44.6027ZM160.897 46.1773C160.908 41.1629 164.984 37.1089 169.987 37.1535C175.035 37.1982 179.011 41.2075 179 46.2555C178.989 51.2141 174.924 55.2346 169.909 55.2122C164.917 55.2011 160.897 51.1694 160.897 46.1773ZM163.8 46.155C163.778 49.4607 166.536 52.2862 169.797 52.3085C173.282 52.3309 176.085 49.6282 176.107 46.2331C176.119 42.8827 173.382 40.0684 170.077 40.0572C166.592 40.0461 163.823 42.7376 163.8 46.155ZM134.864 55.2122H137.779C137.783 55.1527 137.786 55.1005 137.79 55.0542C137.796 54.9616 137.801 54.8921 137.801 54.8325C137.801 53.997 137.803 53.1606 137.805 52.3238C137.809 50.23 137.814 48.1338 137.79 46.0433C137.779 45.2392 137.689 44.4127 137.477 43.631C135.791 37.2875 128.632 35.0763 123.919 39.0074C123.883 39.0316 123.844 39.0525 123.79 39.0807C123.745 39.1047 123.69 39.1339 123.618 39.1749V37.0865H120.792V55.1899H123.64V54.531C123.64 53.8439 123.639 53.1575 123.639 52.4715C123.637 50.4144 123.635 48.3604 123.651 46.3001C123.651 45.5966 123.718 44.8818 123.897 44.2117C124.757 41.0623 127.85 39.2755 130.832 40.1801C133.155 40.8837 134.853 43.2289 134.864 45.8087C134.871 47.7516 134.869 49.6894 134.866 51.6289C134.865 52.5993 134.864 53.5701 134.864 54.5421V55.2122Z" fill="white"/>
</svg>
