<svg width="224" height="82" viewBox="0 0 224 82" fill="none" xmlns="http://www.w3.org/2000/svg">
<path fill-rule="evenodd" clip-rule="evenodd" d="M59.0404 41.1478C72.7418 47.7693 78.2849 41.6743 78.5771 41.3368C79.4747 43.8612 78.1879 45.9478 78.1356 45.9826C75.2731 49.683 65.6382 49.4386 57.3648 45.4241C50.9242 42.3172 50.1038 38.2503 50.0515 36.5747C48.4631 36.5922 41.2893 36.9762 42.0573 42.7536C42.0573 42.8059 43.5235 51.3237 61.9903 56.4902C61.9903 56.4902 83.4766 62.5469 85.6235 50.3986C85.641 50.416 86.8093 45.4291 78.5843 41.3284L78.5894 41.3224L76.1632 31.1988C76.1632 31.1988 75.8141 29.3312 73.0738 28.1268C73.0738 28.1268 69.164 26.172 65.2193 25.0549C65.2193 25.0549 63.596 24.6185 62.0775 26.2069C62.0775 26.2069 61.0477 27.3589 58.7961 26.0149C58.7961 26.0149 55.951 23.9902 54.415 27.0272C54.4499 27.0796 52.4427 31.7574 51.2383 34.5501C52.53 37.9537 59.0404 41.1478 59.0404 41.1478ZM133.047 50.0147H136.765V50.0108C136.765 44.0602 136.765 38.2142 136.782 32.2461C136.391 32.3304 136.01 32.4119 135.636 32.4921L135.63 32.4934L135.627 32.494L135.627 32.494C134.685 32.6956 133.779 32.8896 132.82 33.1014V37.6395C127.898 36.6795 125.507 37.4126 123.761 40.4148C122.47 42.6315 122.749 45.8082 124.407 47.7805C126.484 50.2591 129.068 50.7653 132.698 49.3689C132.724 49.4163 132.749 49.4629 132.774 49.5089C132.792 49.5414 132.81 49.5736 132.828 49.6056C132.905 49.7451 132.98 49.8799 133.047 50.0147ZM132.803 41.4271V45.7558C131.354 47.1347 129.155 47.1522 127.811 45.8431C126.572 44.6388 126.537 42.7188 127.706 41.4446C128.945 40.0832 131.249 40.0657 132.803 41.4271ZM93.67 33.1535C94.6695 33.1535 95.6609 33.1421 96.6461 33.1307H96.6462C98.878 33.1049 101.078 33.0795 103.27 33.1885C105.469 33.3106 107.197 34.4801 107.948 36.6619C108.663 38.7215 108.279 40.624 106.708 42.2124C106.389 42.5317 106.009 42.8004 105.591 43.0956L105.591 43.0956C105.461 43.1877 105.327 43.2823 105.19 43.3818C106.377 45.5636 107.546 47.7105 108.785 49.9796H104.073C103.043 48.0247 101.978 46 100.896 43.9404H97.8765V49.9796H93.6351C93.67 44.3942 93.67 38.7913 93.67 33.1535ZM97.8939 40.3797C98.3837 40.3797 98.865 40.3865 99.3399 40.3932C100.388 40.4079 101.406 40.4223 102.415 40.3622C103.322 40.3099 103.916 39.5942 103.968 38.7564C104.038 37.8313 103.567 36.9412 102.659 36.8713C101.562 36.7738 100.456 36.7955 99.3365 36.8174C98.8527 36.8269 98.3662 36.8364 97.8765 36.8364C97.8939 38.0233 97.8939 39.1579 97.8939 40.3797ZM142.734 33.1363H146.819V39.5072H153.661V33.1712H157.815V50.0147H153.713V43.5217H146.819V50.0322H142.717C142.734 44.4143 142.734 38.8313 142.734 33.1438V33.1363ZM171.15 50.0321H167.572C167.45 49.8927 167.293 49.7186 167.137 49.5444L167.136 49.5439L167.136 49.5433C167.081 49.5615 167.029 49.5755 166.979 49.5889C166.884 49.6141 166.797 49.6374 166.717 49.683C165.373 50.3288 163.959 50.3812 162.528 50.1368C160.66 49.8226 159.281 48.3564 159.211 46.6983C159.124 44.5165 160.067 43.1201 162.231 42.6838C163.146 42.4925 164.115 42.4937 165.07 42.4949C165.336 42.4952 165.6 42.4956 165.862 42.4918C166.147 42.4799 166.441 42.533 166.727 42.5846L166.727 42.5846C166.86 42.6086 166.991 42.6322 167.118 42.6489C167.52 41.4096 166.839 40.3972 165.495 40.3972C164.659 40.3972 163.823 40.5744 162.986 40.7516C162.74 40.8037 162.494 40.8558 162.249 40.9034C161.988 40.953 161.746 41.0553 161.452 41.1792L161.452 41.1793C161.332 41.2299 161.203 41.2841 161.062 41.3398L161.016 41.2502L161.016 41.2497L161.015 41.2476C160.543 40.3204 160.085 39.4212 159.578 38.4074C162.493 37.1682 165.338 36.4351 168.375 37.4474C170.243 38.0758 171.168 39.5245 171.22 41.427C171.269 43.3438 171.258 45.2519 171.247 47.1635V47.1654V47.1658V47.1662C171.242 47.9867 171.238 48.8079 171.238 49.6306C171.25 49.695 171.225 49.7785 171.19 49.8949C171.178 49.9363 171.164 49.9818 171.15 50.0321ZM167.014 45.2845C165.792 45.0052 164.64 44.7434 163.523 45.2321C163.174 45.3892 162.807 45.8779 162.772 46.2445C162.755 46.5586 163.139 47.0823 163.453 47.2045C164.675 47.6583 165.879 47.4837 166.996 46.8379C167.014 46.2794 167.014 45.8256 167.014 45.2845ZM118.438 46.0701C115.767 47.3966 113.83 47.0999 112.852 45.0403H121.754C121.754 44.81 121.756 44.6019 121.758 44.4089L121.758 44.4074V44.4074V44.4071C121.762 44.0596 121.765 43.7609 121.754 43.4694C121.615 40.4498 119.799 37.9887 117.146 37.2556C114.301 36.4702 111.282 37.5 109.711 39.9261C108.314 42.0905 108.157 44.4294 109.379 46.7159C110.74 49.2817 113.062 50.3289 115.889 50.294C117.775 50.2591 119.468 49.6657 120.969 48.3042C120.683 48.0521 120.403 47.8054 120.127 47.563L120.127 47.5624L120.124 47.5606C119.543 47.0485 118.982 46.5552 118.438 46.0701ZM114.912 40.2752C116.169 40.153 117.303 40.8687 117.67 42.1428H112.852C112.922 41.1305 113.76 40.3974 114.912 40.2752ZM182.146 46.6984V49.8227C180.453 50.2765 178.778 50.4511 177.102 49.8576C175.688 49.3689 174.903 48.3391 174.833 46.8555C174.789 45.7645 174.78 44.6736 174.77 43.5827L174.77 43.5746C174.765 42.9228 174.759 42.271 174.746 41.6191C174.746 41.4344 174.734 41.2497 174.72 41.0436L174.72 41.0421L174.72 41.0416C174.711 40.8978 174.701 40.7437 174.693 40.5719H172.232V37.2381H174.746V33.9567C176.09 33.6599 177.312 33.3981 178.725 33.1014V37.2032H182.286V40.5544H178.917C178.903 40.6423 178.889 40.7259 178.876 40.8062C178.822 41.1244 178.778 41.3892 178.778 41.6541C178.76 42.8235 178.76 43.9755 178.778 45.1449C178.795 46.5064 179.127 46.8729 180.471 46.8555C180.784 46.8346 181.11 46.8012 181.448 46.7665L181.448 46.7665C181.675 46.7433 181.908 46.7194 182.146 46.6984Z" fill="white"/>
</svg>
